<?xml version="1.0" encoding="utf-8"?>
<!-- Generator: Adobe Illustrator 19.0.0, SVG Export Plug-In . SVG Version: 6.00 Build 0)  -->
<svg version="1.1" id="Layer_1" xmlns="http://www.w3.org/2000/svg" xmlns:xlink="http://www.w3.org/1999/xlink" x="0px" y="0px"
	 viewBox="564 -579 1920 1770" style="enable-background:new 564 -579 1920 1770;" xml:space="preserve">
<style type="text/css">
	.st0{clip-path:url(#SVGID_2_);}
	.st1{fill:url(#Path_9221_1_);}
	.st2{fill:url(#Path_1_1_);}
	.st3{opacity:6.100000e-002;fill:url(#Path_27_1_);enable-background:new    ;}
	.st4{opacity:6.100000e-002;fill:url(#Path_28_1_);enable-background:new    ;}
	.st5{fill:url(#Ellipse_1-3_2_);}
	.st6{fill:#02899B;}
	.st7{fill:#D0D7F9;}
	.st8{opacity:0.367;fill:#9FB0FF;enable-background:new    ;}
	.st9{fill:url(#Ellipse_1-4_2_);}
	.st10{fill:url(#Ellipse_2-2_1_);}
	.st11{fill:#F6C9CE;}
	.st12{opacity:0.367;fill:#F68992;enable-background:new    ;}
	.st13{fill:url(#Path_24-2_2_);}
	.st14{fill:url(#Path_25-2_2_);}
	.st15{opacity:9.000000e-002;fill:url(#Ellipse_6_1_);enable-background:new    ;}
	.st16{opacity:9.000000e-002;fill:url(#Ellipse_7_1_);enable-background:new    ;}
	.st17{opacity:9.000000e-002;fill:url(#Ellipse_8_1_);enable-background:new    ;}
	.st18{opacity:0.47;}
	.st19{fill:none;}
	.st20{fill:none;stroke:#A5C2FF;stroke-width:10;}
</style>
<g>
	<g>
		<g>
			<defs>
				<rect id="SVGID_1_" x="564" y="-579" width="1920" height="1770"/>
			</defs>
			<clipPath id="SVGID_2_">
				<use xlink:href="#SVGID_1_"  style="overflow:visible;"/>
			</clipPath>
			<g id="Mask_Group_33" class="st0">
				<g id="header_bg" transform="translate(0 72)">
					
						<radialGradient id="Path_9221_1_" cx="3562.6143" cy="719.8488" r="0.5" gradientTransform="matrix(1591.0166 0 0 -1659.8105 -5666973.5 1195293.375)" gradientUnits="userSpaceOnUse">
						<stop  offset="0" style="stop-color:#066572"/>
						<stop  offset="0.3948" style="stop-color:#0B6574"/>
						<stop  offset="0.8471" style="stop-color:#19657C"/>
						<stop  offset="1" style="stop-color:#1F657F"/>
					</radialGradient>
					<path id="Path_9221" class="st1" d="M1967.9,425.1c-127.8-8.3-240.7,133.8-266,165.6s-77.8,124.7-160.2,139.1
						s-155.2,33-249,9.1S1086,775.3,1068.6,805s-131.7,220.1-230.8,233.5s-192.1-7-251.3,48.8s-181,142.3-176.8,220.7
						s0-1657.2,0-1657.2l1397.8,122.1C1807.5-227.1,2095.7,433.3,1967.9,425.1z"/>
					<radialGradient id="Path_1_1_" cx="1524" cy="-147.95" r="791.2182" gradientUnits="userSpaceOnUse">
						<stop  offset="0" style="stop-color:#066572"/>
						<stop  offset="0.3948" style="stop-color:#0B6574"/>
						<stop  offset="0.8471" style="stop-color:#19657C"/>
						<stop  offset="1" style="stop-color:#1F657F"/>
					</radialGradient>
					<path id="Path_1" class="st2" d="M564-722.8h1920V-19l-5.1,45c0,0-17.8,97.2-102.1,154.6s-121.6,26.9-242.6,83
						c-65.6,30.4-123.9,75.9-163.5,111.1c-37.7,33.6-86.5,52.2-137,52.2H564V-722.8z"/>
					
						<linearGradient id="Path_27_1_" gradientUnits="userSpaceOnUse" x1="3558.1409" y1="721.8926" x2="3557.4919" y2="721.2036" gradientTransform="matrix(444.8151 0 0 -284.4503 -1580281.75 204904.7344)">
						<stop  offset="0" style="stop-color:#FFFFFF"/>
						<stop  offset="1" style="stop-color:#FFFFFF;stop-opacity:0"/>
					</linearGradient>
					<path id="Path_27" class="st3" d="M2039.2-227.8l83.3-101.7c31.6-35.2,85.8-38.2,121-6.5l0.1,0.1l11.7,10.5
						c12.4,11.2,31.5,10.8,43.4-1l94.2-94.8l-27.1-26.1c-4.8-4.7-5-12.3-0.3-17.2c2-2,4.6-3.3,7.5-3.6l97.5-10.3
						c6.7-0.7,12.6,4.1,13.3,10.8c0.1,0.7,0.1,1.4,0,2.1l-6.9,97.8c-0.5,6.7-6.3,11.7-13,11.3c-2.8-0.2-5.5-1.4-7.6-3.4l-27.2-26.3
						l-102.3,102.7c-27,26.6-70,27.5-98.1,2.2l-20.9-18.8c-13.5-12.1-34.2-11.1-46.4,2.4l0,0L2076.9-194L2039.2-227.8z"/>
					
						<linearGradient id="Path_28_1_" gradientUnits="userSpaceOnUse" x1="3558.1409" y1="721.8926" x2="3557.4919" y2="721.2036" gradientTransform="matrix(444.8151 0 0 -284.4503 -1581979.75 205498.7344)">
						<stop  offset="0" style="stop-color:#FFFFFF"/>
						<stop  offset="1" style="stop-color:#FFFFFF;stop-opacity:0"/>
					</linearGradient>
					<path id="Path_28" class="st4" d="M341.2,366.2l83.3-101.7c31.6-35.2,85.8-38.2,121-6.5l0.1,0.1l11.7,10.5
						c12.4,11.2,31.5,10.8,43.4-1l94.2-94.8l-27.1-26.1c-4.8-4.7-5-12.3-0.3-17.2c2-2,4.6-3.3,7.5-3.6l97.5-10.3
						c6.7-0.7,12.6,4.1,13.3,10.8c0.1,0.7,0.1,1.4,0,2.1l-6.9,97.8c-0.5,6.7-6.3,11.7-13,11.3c-2.8-0.2-5.5-1.4-7.6-3.4L731.4,208
						L629.1,310.7c-27,26.6-70,27.5-98.1,2.2l-20.9-18.8c-13.5-12.1-34.2-11.1-46.4,2.4l0,0L378.9,400L341.2,366.2z"/>
					<g id="images" transform="translate(-17 81)">
						<g id="Group_4" transform="translate(1320 -1928)">
							<g transform="matrix(1, 0, 0, 1, -1303, 1775)">
								
									<linearGradient id="Ellipse_1-3_2_" gradientUnits="userSpaceOnUse" x1="3536.4487" y1="797.3266" x2="3537.0208" y2="796.3526" gradientTransform="matrix(108 0 0 -108 -379687 86153)">
									<stop  offset="0" style="stop-color:#A8CDFF"/>
									<stop  offset="1" style="stop-color:#6286FC"/>
								</linearGradient>
								<circle id="Ellipse_1-3_1_" class="st5" cx="2279" cy="92" r="54"/>
							</g>
							<circle id="Ellipse_2" class="st6" cx="976" cy="1867" r="40"/>
							<g id="tron" transform="translate(402.606 2427.22) rotate(22)">
								<path id="Path_12" class="st7" d="M338.5-738.1c-1.5-1.4-3.7-3.6-5.4-5.2l-0.1-0.1c-0.2-0.1-0.4-0.2-0.6-0.3l0,0
									c-4.2-0.8-23.8-4.4-24.2-4.4c-0.1,0-0.2,0.1-0.3,0.1l-0.1,0.1c-0.1,0.1-0.2,0.3-0.3,0.4v0.1v0.4c2.2,6.1,10.9,26.2,12.6,31
									c0.1,0.3,0.3,0.9,0.7,1h0.1c0.2,0,1-1.1,1-1.1s15-18.1,16.5-20.1c0.2-0.2,0.4-0.5,0.5-0.8
									C339-737.4,338.9-737.8,338.5-738.1z M325.8-736l6.4-5.3l3.7,3.4L325.8-736z M323.3-736.4l-11-9l17.8,3.3L323.3-736.4z
									 M324.3-734l11.2-1.8l-12.9,15.5L324.3-734z M310.8-744.5l11.6,9.8l-1.7,14.3L310.8-744.5z"/>
							</g>
							<circle id="Ellipse_3" class="st8" cx="1053" cy="1829" r="5"/>
							<circle id="Ellipse_4" class="st8" cx="893" cy="1929" r="5"/>
							<circle id="Ellipse_5" class="st8" cx="911" cy="1791" r="3"/>
						</g>
						<g id="Group_8" transform="translate(1465 -2021)">
							<g transform="matrix(1, 0, 0, 1, -1448, 1868)">
								
									<linearGradient id="Ellipse_1-4_2_" gradientUnits="userSpaceOnUse" x1="3519.0991" y1="799.806" x2="3517.7051" y2="800.9202" gradientTransform="matrix(65 0 0 -65 -226303 51994)">
									<stop  offset="0" style="stop-color:#F4738A"/>
									<stop  offset="1" style="stop-color:#FAA79D"/>
								</linearGradient>
								<circle id="Ellipse_1-4_1_" class="st9" cx="2389.5" cy="-32.5" r="32.5"/>
							</g>
							
								<linearGradient id="Ellipse_2-2_1_" gradientUnits="userSpaceOnUse" x1="-840.9545" y1="2671.6707" x2="-840.4306" y2="2670.8635" gradientTransform="matrix(49 0 0 -49 42137 132730)">
								<stop  offset="0" style="stop-color:#EB888C"/>
								<stop  offset="1" style="stop-color:#E86980"/>
							</linearGradient>
							<circle id="Ellipse_2-2" class="st10" cx="941.5" cy="1835.5" r="24.5"/>
							<g id="tron-2" transform="translate(372.332 2403.712) rotate(22)">
								<path id="Path_12-2" class="st11" d="M324.7-742.1c-0.9-0.9-2.2-2.2-3.3-3.1h-0.1c-0.1-0.1-0.2-0.1-0.3-0.2l0,0
									c-2.5-0.5-14.4-2.7-14.6-2.7c-0.1,0-0.1,0-0.2,0.1h-0.1c-0.1,0.1-0.1,0.2-0.2,0.3l0,0v0.3c1.3,3.7,6.6,15.8,7.6,18.7
									c0.1,0.2,0.2,0.6,0.4,0.6l0,0c0.1,0,0.6-0.7,0.6-0.7s9-11,9.9-12.1c0.1-0.1,0.2-0.3,0.3-0.5
									C325-741.6,324.9-741.9,324.7-742.1z M317-740.8l3.9-3.2l2.3,2.1L317-740.8z M315.5-741l-6.6-5.4l10.7,2L315.5-741z
									 M316.1-739.6l6.8-1.1l-7.8,9.4L316.1-739.6z M308-745.9l7,5.9l-1,8.7L308-745.9z"/>
							</g>
							<circle id="Ellipse_3-2" class="st12" cx="991" cy="1780" r="3"/>
							<circle id="Ellipse_4-2" class="st12" cx="941" cy="1907" r="3"/>
							<circle id="Ellipse_5-2" class="st12" cx="866" cy="1823" r="2"/>
						</g>
					</g>
					<g id="calc" transform="translate(0 51)">
						<g transform="matrix(1, 0, 0, 1, 0, -123)">
							
								<linearGradient id="Path_24-2_2_" gradientUnits="userSpaceOnUse" x1="3557.8418" y1="793.762" x2="3557.5208" y2="793.12" gradientTransform="matrix(439.7368 0 0 -281.2045 -1562239.125 223470.125)">
								<stop  offset="0" style="stop-color:#A8CDFF"/>
								<stop  offset="1" style="stop-color:#6286FC"/>
							</linearGradient>
							<path id="Path_24-2_1_" class="st13" d="M1982.8,425l82.3-100.6c31.2-34.8,84.8-37.7,119.6-6.5l0.1,0.1l11.6,10.4
								c12.3,11.1,31.1,10.7,42.9-1l93.2-93.7l-26.8-25.8c-4.8-4.6-4.9-12.2-0.3-17c2-2,4.6-3.3,7.4-3.6l96.4-10.2
								c6.6-0.7,12.5,4.1,13.2,10.7c0.1,0.7,0.1,1.4,0,2.1l-6.8,96.7c-0.5,6.6-6.2,11.6-12.8,11.1c-2.8-0.2-5.5-1.4-7.5-3.3
								l-26.9-26L2267.3,370c-26.6,26.3-69.2,27.2-96.9,2.2l-20.7-18.6c-13.3-12-33.8-10.9-45.9,2.4c0,0,0,0,0,0.1L2020,458.4
								L1982.8,425z"/>
						</g>
						<g transform="matrix(1, 0, 0, 1, 0, -123)">
							
								<linearGradient id="Path_25-2_2_" gradientUnits="userSpaceOnUse" x1="3554.9871" y1="794.0603" x2="3555.304" y2="794.5873" gradientTransform="matrix(318.8396 0 0 -203.891 -1131403.625 162277.8594)">
								<stop  offset="0" style="stop-color:#F4738A"/>
								<stop  offset="1" style="stop-color:#FAA79D"/>
							</linearGradient>
							<path id="Path_25-2_1_" class="st14" d="M1940.8,396.8l59.7-72.9c22.7-25.2,61.5-27.3,86.7-4.7l0.1,0.1l8.4,7.6
								c8.9,8,22.6,7.7,31.1-0.7l67.6-67.9l-19.4-18.7c-3.5-3.3-3.6-8.8-0.2-12.3c1.4-1.5,3.3-2.4,5.3-2.6l69.9-7.4
								c4.8-0.5,9.1,3,9.6,7.7c0.1,0.5,0.1,1,0,1.5l-4.9,70.1c-0.3,4.8-4.5,8.4-9.3,8.1c-2-0.1-4-1-5.4-2.4l-19.5-18.8l-73.3,73.6
								c-19.3,19.1-50.1,19.7-70.3,1.6l-15-13.5c-9.7-8.7-24.5-7.9-33.2,1.7l0,0l-60.8,74.1L1940.8,396.8z"/>
						</g>
					</g>
				</g>
				<g id="Group_2465" transform="translate(364.365 -141.296)">
					
						<linearGradient id="Ellipse_6_1_" gradientUnits="userSpaceOnUse" x1="2462.1504" y1="940.9155" x2="2463.5444" y2="940.8055" gradientTransform="matrix(190.924 -138.768 -162.288 -223.284 -315872.25 551677.625)">
						<stop  offset="0" style="stop-color:#FFFFFF;stop-opacity:0.694"/>
						<stop  offset="1" style="stop-color:#808080;stop-opacity:0"/>
					</linearGradient>
					<path id="Ellipse_6" class="st15" d="M1515.5-243.4c52.7-38.3,131.8-19.4,176.6,42.3s38.4,142.7-14.3,181S1546-0.7,1501.2-62.3
						S1462.8-205.1,1515.5-243.4z"/>
					
						<linearGradient id="Ellipse_7_1_" gradientUnits="userSpaceOnUse" x1="2467.5623" y1="916.1124" x2="2468.9561" y2="916.0024" gradientTransform="matrix(-2.618 154 180 3.06 -156887.7656 -382849.2188)">
						<stop  offset="0" style="stop-color:#FFFFFF;stop-opacity:0.694"/>
						<stop  offset="1" style="stop-color:#808080;stop-opacity:0"/>
					</linearGradient>
					<path id="Ellipse_7" class="st16" d="M1635.4,24c-0.7,42.5-41.6,76.3-91.3,75.5c-49.7-0.8-89.4-36-88.7-78.5
						c0.7-42.5,41.6-76.3,91.3-75.5C1596.4-53.6,1636.1-18.5,1635.4,24z"/>
					
						<linearGradient id="Ellipse_8_1_" gradientUnits="userSpaceOnUse" x1="2480.2917" y1="933.9595" x2="2481.6858" y2="933.8494" gradientTransform="matrix(-307.45 -105.95 -123.88 359.48 879746.875 -72988.4453)">
						<stop  offset="0" style="stop-color:#FFFFFF;stop-opacity:0.694"/>
						<stop  offset="1" style="stop-color:#808080;stop-opacity:0"/>
					</linearGradient>
					<path id="Ellipse_8" class="st17" d="M1296.7,88.4c-84.9-29.3-126-133.4-91.8-232.7s130.8-156,215.7-126.8
						c84.9,29.3,126,133.4,91.8,232.7S1381.6,117.7,1296.7,88.4z"/>
				</g>
				<g id="Group_2466" transform="translate(0 -1811)">
					<g id="Ellipse_30" transform="translate(1392 2889)" class="st18">
						<circle class="st19" cx="644.5" cy="-498.5" r="80.5"/>
						<circle class="st20" cx="644.5" cy="-498.5" r="75.5"/>
					</g>
				</g>
			</g>
		</g>
	</g>
</g>
</svg>
