<svg xmlns="http://www.w3.org/2000/svg" width="23" height="23" viewBox="0 0 23 23"><g><g><path fill="#44c8a9" d="M21.298 11.552a9.741 9.741 0 0 0-9.746-9.747 9.741 9.741 0 0 0-9.747 9.747 9.741 9.741 0 0 0 9.747 9.746 9.741 9.741 0 0 0 9.746-9.746zm1.805 0a11.545 11.545 0 0 1-11.551 11.551A11.545 11.545 0 0 1 0 11.552 11.545 11.545 0 0 1 11.552 0a11.545 11.545 0 0 1 11.551 11.552zm-6.445-3.666a.902.902 0 0 1 0 1.276l-6.054 6.055a.903.903 0 0 1-1.277 0l-2.882-2.882a.902.902 0 1 1 1.276-1.277l2.244 2.244 5.417-5.416a.903.903 0 0 1 1.276 0z"/></g></g></svg>