<svg xmlns="http://www.w3.org/2000/svg" width="31" height="16" viewBox="0 0 31 16"><g><g><g opacity=".09"><path fill="#fff" d="M1.49 1.167l2.945.24v13.572l-3.226-.24z"/></g><g><path fill="#a3bcff" d="M15.422 8.934h-3.423a.935.935 0 0 1 0-1.868h3.423zm-1.712 5.601H3.29a1.713 1.713 0 0 1-1.712-1.712V3.177c0-.944.768-1.712 1.712-1.712h10.42c.944 0 1.712.768 1.712 1.712v2.645h-3.423A2.18 2.18 0 0 0 9.82 8 2.18 2.18 0 0 0 12 10.178h3.423v2.645c0 .944-.768 1.712-1.712 1.712zm0-14.315H3.29A2.96 2.96 0 0 0 .333 3.177v9.646A2.96 2.96 0 0 0 3.29 15.78h10.42a2.96 2.96 0 0 0 2.957-2.957V3.177A2.96 2.96 0 0 0 13.71.22z"/></g></g><g><g opacity=".34"><path fill="#a3bcff" d="M21.574 9.876a.54.54 0 0 0 .978.319c.433-.597.644-1.32.644-2.211 0-.892-.21-1.615-.644-2.211a.54.54 0 1 0-.875.636c.294.404.437.92.437 1.575 0 .655-.143 1.17-.437 1.574a.538.538 0 0 0-.103.318z"/></g><g opacity=".6"><path fill="#a3bcff" d="M24.769 3.492a.54.54 0 0 0-.117.756c.758 1.034 1.247 2.5 1.247 3.736 0 1.235-.49 2.701-1.247 3.735a.538.538 0 0 0 .117.756.54.54 0 0 0 .756-.117c.898-1.226 1.456-2.902 1.456-4.374 0-1.473-.558-3.15-1.456-4.375a.54.54 0 0 0-.756-.117z"/></g><g><path fill="#a3bcff" d="M29.786 4.998a.54.54 0 0 0-.393.656c.193.779.292 1.563.292 2.33 0 1.985-.67 4.089-1.79 5.63a.54.54 0 0 0 .874.636c1.25-1.719 1.997-4.061 1.997-6.266 0-.856-.109-1.727-.324-2.591a.541.541 0 0 0-.656-.395z"/></g><g><path fill="#a3bcff" d="M29.495 2.886a9.79 9.79 0 0 0-.724-1.168.54.54 0 0 0-.876.635c.233.322.45.672.644 1.038a.54.54 0 0 0 .956-.505z"/></g></g></g></svg>