<?xml version="1.0" encoding="utf-8"?>
<!-- Generator: Adobe Illustrator 19.0.0, SVG Export Plug-In . SVG Version: 6.00 Build 0)  -->
<svg version="1.1" id="Layer_1" xmlns="http://www.w3.org/2000/svg" xmlns:xlink="http://www.w3.org/1999/xlink" x="0px" y="0px"
	 viewBox="-155 207.8 299.6 378.2" style="enable-background:new -155 207.8 299.6 378.2;" xml:space="preserve">
<style type="text/css">
	.st0{fill:#EBF3FA;}
	.st1{fill:url(#SVGID_1_);}
	.st2{opacity:0.88;fill:url(#SVGID_2_);}
	.st3{fill:#AFCDFB;}
	.st4{fill:#88B3FF;}
	.st5{fill:url(#SVGID_3_);}
	.st6{opacity:0.72;fill:url(#SVGID_4_);}
	.st7{opacity:0.72;fill:url(#SVGID_5_);}
	.st8{fill:url(#SVGID_6_);}
	.st9{fill:url(#SVGID_7_);}
	.st10{fill:url(#SVGID_8_);}
	.st11{fill:#048899;}
	.st12{fill:url(#SVGID_9_);}
</style>
<g transform="translate(-287.685 -1885.927)">
	<g transform="translate(-735.769 1005.069)">
		<path class="st0" d="M1159.8,1376.3c0,0-24.4,54.7-81.4,42.1c-50.5-11.3-61.6-44.7-55.9-75.1c2.4-12.9-15.8-39.6-65.8-47.6
			c-68.2-11-85.3-142,6.6-155.7c44.5-6.7,28.2-49.1,77.3-44.8L1159.8,1376.3z"/>
		<radialGradient id="SVGID_1_" cx="1028.7904" cy="1296.3051" r="41.4944" gradientUnits="userSpaceOnUse">
			<stop  offset="0" style="stop-color:#066572"/>
			<stop  offset="0.3948" style="stop-color:#0B6574"/>
			<stop  offset="0.8471" style="stop-color:#19657C"/>
			<stop  offset="1" style="stop-color:#1F657F"/>
		</radialGradient>
		<rect x="1009.5" y="1240.9" class="st1" width="38.5" height="110.9"/>
		<radialGradient id="SVGID_2_" cx="958.6981" cy="1296.3051" r="53.1905" gradientUnits="userSpaceOnUse">
			<stop  offset="0" style="stop-color:#066572"/>
			<stop  offset="0.3948" style="stop-color:#0B6574"/>
			<stop  offset="0.8471" style="stop-color:#19657C"/>
			<stop  offset="1" style="stop-color:#1F657F"/>
		</radialGradient>
		<rect x="907.9" y="1240.9" class="st2" width="101.7" height="110.9"/>
		<rect x="907.9" y="1295.1" class="st3" width="101.7" height="7.8"/>
		<rect x="1009.5" y="1295.1" class="st4" width="38.5" height="7.8"/>
		<radialGradient id="SVGID_3_" cx="1008.1755" cy="1234.5829" r="19.3099" gradientUnits="userSpaceOnUse">
			<stop  offset="0" style="stop-color:#066572"/>
			<stop  offset="0.3948" style="stop-color:#0B6574"/>
			<stop  offset="0.8471" style="stop-color:#19657C"/>
			<stop  offset="1" style="stop-color:#1F657F"/>
		</radialGradient>
		<path class="st5" d="M982,1239.2c0,0,31.2-14.2,52.9-8.8l-4.3,2.9l2.2,5.1c-17-3.7-34.6-3.1-51.4,1.6L982,1239.2z"/>
		<g transform="translate(1068.082 963.931)">
			<radialGradient id="SVGID_4_" cx="-123.1962" cy="248.7996" r="28.9998" gradientUnits="userSpaceOnUse">
				<stop  offset="0" style="stop-color:#066572"/>
				<stop  offset="0.3948" style="stop-color:#0B6574"/>
				<stop  offset="0.8471" style="stop-color:#19657C"/>
				<stop  offset="1" style="stop-color:#1F657F"/>
			</radialGradient>
			<path class="st6" d="M-91.4,274.7c0,0-4.1-0.5-10.1-1.3c-16-2.2-46.1-6.8-51.5-11.1c-8.5-6.7,11.6-35.2,20.3-39.2
				S-91.4,274.7-91.4,274.7z"/>
			<radialGradient id="SVGID_5_" cx="-59.8938" cy="242.2629" r="33.3164" gradientUnits="userSpaceOnUse">
				<stop  offset="0" style="stop-color:#066572"/>
				<stop  offset="0.3948" style="stop-color:#0B6574"/>
				<stop  offset="0.8471" style="stop-color:#19657C"/>
				<stop  offset="1" style="stop-color:#1F657F"/>
			</radialGradient>
			<path class="st7" d="M-27.8,239.2c1.4,7.1-64.2,37.6-64.2,37.6s1.2-3.2,3.1-8.3l0,0c7.1-18.5,24.2-61.3,29.8-60.7
				c0.7,0.1,1.3,0.3,2,0.6C-48.5,212.1-29.2,232.7-27.8,239.2z"/>
			<radialGradient id="SVGID_6_" cx="-72.4955" cy="238.121" r="24.3771" gradientUnits="userSpaceOnUse">
				<stop  offset="0" style="stop-color:#066572"/>
				<stop  offset="0.3948" style="stop-color:#0B6574"/>
				<stop  offset="0.8471" style="stop-color:#19657C"/>
				<stop  offset="1" style="stop-color:#1F657F"/>
			</radialGradient>
			<path class="st8" d="M-57.6,214.6c-4,7-30.8,53.1-31.2,53.8c7.1-18.5,24.2-61.3,29.8-60.7c0.7,0,1.4,0.2,2,0.6
				C-56.1,209.1-55.4,210.8-57.6,214.6z"/>
			<radialGradient id="SVGID_7_" cx="-127.4858" cy="263.866" r="19.5823" gradientUnits="userSpaceOnUse">
				<stop  offset="0" style="stop-color:#066572"/>
				<stop  offset="0.3948" style="stop-color:#0B6574"/>
				<stop  offset="0.8471" style="stop-color:#19657C"/>
				<stop  offset="1" style="stop-color:#1F657F"/>
			</radialGradient>
			<path class="st9" d="M-101.5,273.4L-101.5,273.4c-16-2.2-46.1-6.8-51.5-11.1c-2.4-6.9,3.9-7.4,8.5-7.9S-101.5,273.4-101.5,273.4z
				"/>
			<radialGradient id="SVGID_8_" cx="-92.2385" cy="272.4489" r="8.6372" gradientUnits="userSpaceOnUse">
				<stop  offset="0" style="stop-color:#066572"/>
				<stop  offset="0.3948" style="stop-color:#0B6574"/>
				<stop  offset="0.8471" style="stop-color:#19657C"/>
				<stop  offset="1" style="stop-color:#1F657F"/>
			</radialGradient>
			<path class="st10" d="M-103.6,276.9c0,0,3.7-8.4,10.9-8.8c7.6-0.5,11.9,8.8,11.9,8.8H-103.6z"/>
		</g>
		<rect x="904.8" y="1240.9" class="st4" width="106.4" height="15.2"/>
		<rect x="1011.2" y="1240.9" class="st11" width="40.1" height="15.2"/>
		<radialGradient id="SVGID_9_" cx="943.0911" cy="1249.5483" r="20.2027" gradientUnits="userSpaceOnUse">
			<stop  offset="0" style="stop-color:#066572"/>
			<stop  offset="0.3948" style="stop-color:#0B6574"/>
			<stop  offset="0.8471" style="stop-color:#19657C"/>
			<stop  offset="1" style="stop-color:#1F657F"/>
		</radialGradient>
		<path class="st12" d="M968.2,1239.6c0,0-20.8-6.6-34.9-2.2c-16.2,5-15.2,25-15.2,25l3.8-1.6l5.1,2.4c0,0,0.9-21.2,14.1-24.1
			C952.5,1236.5,968.2,1239.6,968.2,1239.6z"/>
		<rect x="949.7" y="1240.9" class="st3" width="7.8" height="111.8"/>
	</g>
</g>
</svg>
