<svg xmlns="http://www.w3.org/2000/svg" xmlns:xlink="http://www.w3.org/1999/xlink" width="66" height="54.001" viewBox="0 0 66 54.001"><defs><linearGradient id="a" x1="1.119" y1="0.1" x2="0.327" y2="1.57" gradientUnits="objectBoundingBox"><stop offset="0" stop-color="#a8cdff"/><stop offset="1" stop-color="#6286fc"/></linearGradient><filter id="b" x="0" y="0" width="66" height="50" filterUnits="userSpaceOnUse"><feOffset dy="3" input="SourceAlpha"/><feGaussianBlur stdDeviation="3" result="c"/><feFlood flood-color="#a5c5ff" flood-opacity="0.09"/><feComposite operator="in" in2="c"/><feComposite in="SourceGraphic"/></filter></defs><g transform="translate(1 -2)"><g transform="matrix(1, 0, 0, 1, -1, 2)" filter="url(#b)"><path d="M52,8H12a4,4,0,0,0-4,4V36a4,4,0,0,0,4,4H28a2,2,0,0,0,0-4H12V12H52V38a2,2,0,0,0,4,0V12A4,4,0,0,0,52,8Z" transform="translate(1 -2)" fill="url(#a)"/></g><path d="M41,31a6.985,6.985,0,0,0-6,10.587V54a2,2,0,0,0,3.414,1.414L41,52.828l2.586,2.586A2,2,0,0,0,47,54V41.587A6.985,6.985,0,0,0,41,31Zm0,4a3,3,0,1,1-3,3A3,3,0,0,1,41,35ZM39,49.178V44.705a6.927,6.927,0,0,0,4,0v4.473A3.006,3.006,0,0,0,39,49.178Z" fill="url(#a)"/><path d="M18,20H38a2,2,0,0,0,0-4H18a2,2,0,0,0,0,4Z" fill="url(#a)"/><path d="M32,24H18a2,2,0,0,0,0,4H32a2,2,0,0,0,0-4Z" fill="url(#a)"/></g></svg>