<svg xmlns="http://www.w3.org/2000/svg" xmlns:xlink="http://www.w3.org/1999/xlink" width="36" height="48.001" viewBox="0 0 36 48.001"><defs><linearGradient id="a" x1="0.238" y1="0.955" x2="0.628" y2="-0.068" gradientUnits="objectBoundingBox"><stop offset="0" stop-color="#f4738a"/><stop offset="1" stop-color="#faa79d"/></linearGradient></defs><g transform="translate(-417 -676)"><path d="M22,0H14A8.009,8.009,0,0,0,6,8V18H4a4,4,0,0,0-4,4V44a4,4,0,0,0,4,4H32a4,4,0,0,0,4-4V22a4,4,0,0,0-4-4H30V8A8.009,8.009,0,0,0,22,0ZM10,8a4,4,0,0,1,4-4h8a4,4,0,0,1,4,4V18H10ZM32,44H4L4,22H32Zm0,0" transform="translate(417 676)" fill="url(#a)"/><g transform="translate(417 676)"><path d="M102,200a6,6,0,0,0-2,11.65V214a2,2,0,1,0,4,0v-2.35A6,6,0,0,0,102,200Zm0,8a2,2,0,1,1,2-2A2,2,0,0,1,102,208Zm0,0" transform="translate(-84 -175)" fill="url(#a)"/></g></g></svg>