<svg xmlns="http://www.w3.org/2000/svg" width="55" height="55" viewBox="0 0 55 55"><g transform="translate(-1455 -174)"><rect width="55" height="55" rx="27.5" transform="translate(1455 174)" fill="#fff" opacity="0.401" style="mix-blend-mode:overlay;isolation:isolate"/><g transform="translate(1472.267 192.267)"><path d="M6.882,0H2.3A2.307,2.307,0,0,0,0,2.3V6.882a2.307,2.307,0,0,0,2.3,2.3H6.882a2.307,2.307,0,0,0,2.3-2.3V2.3A2.307,2.307,0,0,0,6.882,0ZM7.63,6.882a.749.749,0,0,1-.748.748H2.3a.749.749,0,0,1-.748-.748V2.3A.749.749,0,0,1,2.3,1.557H6.882A.749.749,0,0,1,7.63,2.3Z" fill="#fff"/><g transform="translate(10.744)"><path d="M282.851,0h-4.516A2.338,2.338,0,0,0,276,2.336V6.851a2.338,2.338,0,0,0,2.336,2.336h4.516a2.338,2.338,0,0,0,2.336-2.336V2.336A2.338,2.338,0,0,0,282.851,0Zm.779,6.851a.779.779,0,0,1-.779.779h-4.516a.779.779,0,0,1-.779-.779V2.336a.779.779,0,0,1,.779-.779h4.516a.779.779,0,0,1,.779.779Z" transform="translate(-276)" fill="#fff"/></g><g transform="translate(0 10.744)"><path d="M6.882,276H2.3A2.308,2.308,0,0,0,0,278.3v4.577a2.307,2.307,0,0,0,2.3,2.3H6.882a2.307,2.307,0,0,0,2.3-2.3V278.3A2.308,2.308,0,0,0,6.882,276Zm.748,6.882a.749.749,0,0,1-.748.748H2.3a.749.749,0,0,1-.748-.748V278.3a.749.749,0,0,1,.748-.748H6.882a.749.749,0,0,1,.748.748Z" transform="translate(0 -276)" fill="#fff"/></g><g transform="translate(10.744 10.744)"><path d="M282.851,276h-4.516A2.338,2.338,0,0,0,276,278.336v4.516a2.338,2.338,0,0,0,2.336,2.336h4.516a2.338,2.338,0,0,0,2.336-2.336v-4.516A2.338,2.338,0,0,0,282.851,276Zm.779,6.851a.779.779,0,0,1-.779.779h-4.516a.779.779,0,0,1-.779-.779v-4.516a.779.779,0,0,1,.779-.779h4.516a.779.779,0,0,1,.779.779Z" transform="translate(-276 -276)" fill="#fff"/></g></g></g></svg>