<svg xmlns="http://www.w3.org/2000/svg" width="14.547" height="20.689" viewBox="0 0 14.547 20.689"><path d="M79.615,15.6h7.318a.808.808,0,0,0,.63-.3,14.35,14.35,0,0,0,2.985-8.022A7.273,7.273,0,0,0,76,7.273,14.35,14.35,0,0,0,78.985,15.3.808.808,0,0,0,79.615,15.6ZM83.273,1.616a5.664,5.664,0,0,1,5.657,5.657,12.774,12.774,0,0,1-2.4,6.708H84.082V11.867a3.615,3.615,0,0,0,1.5-.643.808.808,0,1,0-.974-1.29,2.248,2.248,0,0,1-1.329.394h-.006a2.247,2.247,0,0,1-1.329-.394.808.808,0,1,0-.974,1.29,3.615,3.615,0,0,0,1.5.643v2.114H80.013a12.774,12.774,0,0,1-2.4-6.708A5.664,5.664,0,0,1,83.273,1.616Z" transform="translate(-76)" fill="#6479eb"/><path d="M154.082,409.189h-7.273a.808.808,0,1,0,0,1.616h7.273a.808.808,0,0,0,0-1.616Z" transform="translate(-143.171 -392.654)" fill="#6479eb"/><path d="M195.445,472h-3.637a.808.808,0,1,0,0,1.616h3.637a.808.808,0,0,0,0-1.616Z" transform="translate(-186.353 -452.927)" fill="#6479eb"/></svg>