<svg xmlns="http://www.w3.org/2000/svg" width="47" height="27" viewBox="0 0 47 27"><defs><clipPath id="egnpa"><path fill="#fff" d="M5 27a5 5 0 0 1-5-5V5a5 5 0 0 1 5-5h37a5 5 0 0 1 5 5v17a5 5 0 0 1-5 5z"/></clipPath></defs><g><g><g><path fill="none" stroke="#c1d4ff" stroke-miterlimit="20" stroke-width="4" d="M5 27a5 5 0 0 1-5-5V5a5 5 0 0 1 5-5h37a5 5 0 0 1 5 5v17a5 5 0 0 1-5 5z" clip-path="url(&quot;#egnpa&quot;)"/></g><g><path fill="#c1d4ff" d="M36.86 17l-2.58-3.62L36.71 10h-2.54l-1.16 1.76L31.82 10h-2.65l2.44 3.47L29.08 17h2.69l1.18-1.87L34.16 17zm-12.69-3.19v-.74c0-.433.102-.762.305-.985.203-.223.472-.335.805-.335.333 0 .602.112.805.335.203.223.305.552.305.985v.74zm-.67-3.565c-.52.27-.925.663-1.215 1.18-.29.517-.435 1.132-.435 1.845V17h2.32v-1.41h2.22V17h2.36v-3.73c0-.713-.145-1.328-.435-1.845a2.899 2.899 0 0 0-1.215-1.18c-.52-.27-1.12-.405-1.8-.405-.68 0-1.28.135-1.8.405zm-6.575-.17a2.286 2.286 0 0 0-.935.705c-.433-.627-1.097-.94-1.99-.94-.853 0-1.497.287-1.93.86V10H9.79v7h2.36v-4.1c0-.373.087-.658.26-.855.173-.197.41-.295.71-.295.293 0 .522.092.685.275.163.183.245.448.245.795V17h2.36v-4.1c0-.373.095-.658.285-.855.19-.197.445-.295.765-.295.313 0 .56.092.74.275.18.183.27.448.27.795V17h2.36v-4.25c0-.94-.233-1.66-.7-2.16-.467-.5-1.117-.75-1.95-.75-.46 0-.878.078-1.255.235z"/></g></g></g></svg>