<svg xmlns="http://www.w3.org/2000/svg" width="47" height="27" viewBox="0 0 47 27"><defs><clipPath id="f0kla"><path fill="#fff" d="M3 6V5h1v1z"/></clipPath><clipPath id="f0klb"><path fill="#fff" d="M5 27a5 5 0 0 1-5-5V5a5 5 0 0 1 5-5h37a5 5 0 0 1 5 5v17a5 5 0 0 1-5 5z"/></clipPath></defs><g><g><path fill="#fff" d="M3 6V5h1v1z"/><path fill="none" stroke="#707070" stroke-miterlimit="20" stroke-width="2" d="M3 6v0-1 0h1v1z" clip-path="url(&quot;#f0kla&quot;)"/></g><g><g><path fill="none" stroke="#c1d4ff" stroke-miterlimit="20" stroke-width="4" d="M5 27a5 5 0 0 1-5-5V5a5 5 0 0 1 5-5h37a5 5 0 0 1 5 5v17a5 5 0 0 1-5 5z" clip-path="url(&quot;#f0klb&quot;)"/></g><g><path fill="#c1d4ff" d="M30.53 10.75V10h-2.29v7h2.36v-3.9c0-.447.102-.783.305-1.01.203-.227.468-.34.795-.34s.582.105.765.315c.183.21.275.528.275.955V17h2.36v-4.05c0-.993-.228-1.76-.685-2.3-.457-.54-1.098-.81-1.925-.81-.833 0-1.487.303-1.96.91zm-3.21 1.03V10h-4.46v1.78h1.05v3.44h-1.05V17h4.46v-1.78h-1.05v-3.44zm-9.225-1.705a2.286 2.286 0 0 0-.935.705c-.433-.627-1.097-.94-1.99-.94-.853 0-1.497.287-1.93.86V10h-2.28v7h2.36v-4.1c0-.373.087-.658.26-.855.173-.197.41-.295.71-.295.293 0 .522.092.685.275.163.183.245.448.245.795V17h2.36v-4.1c0-.373.095-.658.285-.855.19-.197.445-.295.765-.295.313 0 .56.092.74.275.18.183.27.448.27.795V17H22v-4.25c0-.94-.233-1.66-.7-2.16-.467-.5-1.117-.75-1.95-.75-.46 0-.878.078-1.255.235z"/></g></g></g></svg>