<svg xmlns="http://www.w3.org/2000/svg" width="34" height="30" viewBox="0 0 34 30"><defs><linearGradient id="aqqoa" x1="18" x2="18" y1="4.44" y2="29.56" gradientUnits="userSpaceOnUse"><stop offset="0" stop-color="#f4738a"/><stop offset="1" stop-color="#faa79d"/></linearGradient><linearGradient id="aqqob" x1="6.32" x2="6.32" y1="0" y2="15.8" gradientUnits="userSpaceOnUse"><stop offset="0" stop-color="#f4738a"/><stop offset="1" stop-color="#faa79d"/></linearGradient></defs><g><g><g><g><g><path fill="url(#aqqoa)" d="M31.567 14.487v5.026h-7.034v-5.026zm-.755 11.307v-3.77h2.01c.693 0 1.257-.564 1.257-1.256v-7.537c0-.692-.564-1.255-1.256-1.255h-2.01V8.208a3.773 3.773 0 0 0-3.77-3.769H15.5V6.95h11.545c.693 0 1.257.564 1.257 1.258v3.768h-5.025c-.693 0-1.256.563-1.256 1.255v7.537c0 .692.563 1.256 1.256 1.256H28.3v3.77c0 .692-.564 1.255-1.257 1.255H5.689a1.257 1.257 0 0 1-1.255-1.255V18.5H1.92v7.294a3.773 3.773 0 0 0 3.768 3.768h21.355a3.773 3.773 0 0 0 3.768-3.768z"/></g><g><path fill="url(#aqqob)" d="M3.95 3.95a2.373 2.373 0 0 1 2.37-2.37 2.373 2.373 0 0 1 2.37 2.37v2.37H3.95zm8.69 3.95c0-.871-.708-1.58-1.58-1.58h-.79V3.95A3.955 3.955 0 0 0 6.32 0a3.955 3.955 0 0 0-3.95 3.95v2.37h-.79C.708 6.32 0 7.03 0 7.9v6.32c0 .872.708 1.58 1.58 1.58h9.48c.872 0 1.58-.708 1.58-1.58z"/></g></g></g><g><g><g><path fill="#f68590" d="M27 17a1 1 0 1 1 2 0 1 1 0 0 1-2 0z"/></g></g></g></g></g></svg>