<svg xmlns="http://www.w3.org/2000/svg" width="23" height="22" viewBox="0 0 23 22"><g><g><g><path fill="#96bbfe" d="M20.802 5.437c-.277-1.646-1.455-2.907-2.93-3.14a40.805 40.805 0 0 0-12.707 0c-1.476.233-2.653 1.494-2.93 3.14a31.108 31.108 0 0 0 0 10.363c.277 1.646 1.454 2.907 2.93 3.14 4.216.663 8.49.663 12.707 0 1.475-.233 2.653-1.494 2.93-3.14.58-3.438.58-6.925 0-10.363zM22.577 16.1c-.406 2.409-2.185 4.265-4.426 4.617-4.445.7-8.908.686-13.266 0C2.644 20.365.865 18.51.459 16.1a32.905 32.905 0 0 1 0-10.963C.866 2.728 2.644.872 4.885.52a42.604 42.604 0 0 1 13.266 0c2.241.352 4.02 2.208 4.426 4.617a32.904 32.904 0 0 1 0 10.963zm-8.313-3.353a.9.9 0 0 1-1.273 1.273l-2.109-2.11a.897.897 0 0 1-.264-.636v-3.42a.9.9 0 1 1 1.8 0V10.9z"/></g></g></g></svg>