<?xml version="1.0" encoding="utf-8"?>
<!-- Generator: Adobe Illustrator 19.0.0, SVG Export Plug-In . SVG Version: 6.00 Build 0)  -->
<svg version="1.1" id="Layer_1" xmlns="http://www.w3.org/2000/svg" xmlns:xlink="http://www.w3.org/1999/xlink" x="0px" y="0px"
	 viewBox="432 81 1655.6 451" style="enable-background:new 432 81 1655.6 451;" xml:space="preserve">
<style type="text/css">
	.st0{fill:url(#Path_9257_1_);}
	.st1{clip-path:url(#SVGID_2_);}
	.st2{opacity:0.1;}
	.st3{fill:#96BBFE;}
	.st4{fill:#FFFFFF;}
	.st5{opacity:6.100000e-002;fill:url(#Path_9258_1_);enable-background:new    ;}
	.st6{fill:url(#Ellipse_1-2_2_);}
	.st7{fill:#02899B;}
	.st8{fill:#D0D7F9;}
	.st9{opacity:0.367;fill:#9FB0FF;enable-background:new    ;}
	.st10{opacity:0.1;fill:url(#Ellipse_33_1_);enable-background:new    ;}
	.st11{opacity:0.222;fill:url(#Ellipse_34_1_);enable-background:new    ;}
	.st12{fill:url(#Path_9235-2_2_);}
	.st13{fill:url(#Path_25-2_2_);}
	.st14{opacity:0.327;fill:#FFFFFF;enable-background:new    ;}
</style>
<g id="panel" transform="translate(42.103 -2529.999)">
	
		<radialGradient id="Path_9257_1_" cx="1823.3549" cy="-181.1769" r="0.5" gradientTransform="matrix(1551.1 0 0 260.3486 -2827021 49970.2227)" gradientUnits="userSpaceOnUse">
		<stop  offset="0" style="stop-color:#066572"/>
		<stop  offset="0.3948" style="stop-color:#0B6574"/>
		<stop  offset="0.8471" style="stop-color:#19657C"/>
		<stop  offset="1" style="stop-color:#1F657F"/>
	</radialGradient>
	<path id="Path_9257" class="st0" d="M409.2,2670.9l1481.1,0.1c38.7,0,70,31.3,70,70v59c0,72.3-58.7,131-131,131h-683.9
		c0,0-38.9,3.7-66.6-15.9s-44.4-62.5-44.4-62.5l-152.8-6.3c0,0-11.7,44.7-36.9,65.9c-25.3,21.2-64.1,18.9-64.1,18.9H442.3
		c-11.5,0-22.7-2.8-32.8-8.2L409.2,2670.9z"/>
	<g>
		<g>
			<defs>
				<path id="SVGID_1_" d="M413.3,2679.7h1483.1c38.8,0,70.3,36.6,70.3,81.8v16.4c0,84.6-58.9,153.1-131.5,153.1h-686.7
					c0,0-39,4.3-66.9-18.6c-27.9-22.9-44.6-73.1-44.6-73.1l-153.4-7.4c0,0-11.7,52.3-37.1,77c-25.4,24.8-64.4,22-64.4,22H483.6
					c-38.8,0-70.3-36.6-70.3-81.8V2679.7z"/>
			</defs>
			<clipPath id="SVGID_2_">
				<use xlink:href="#SVGID_1_"  style="overflow:visible;"/>
			</clipPath>
			<g id="Mask_Group_32" class="st1">
				<g id="Group_2511" transform="translate(223.934 2399.077)" class="st2">
					<path id="Path_9381" class="st3" d="M1721.4,421c1.2,2.1,1.2,4.7,0,6.9l-28.5,49.3l-31.9,55.2c-1.2,2.1-3.5,3.4-5.9,3.4H1535
						c-3.9,0-7.1-3.2-7.1-7.1c0-1.3,0.3-2.5,1-3.6l26-45.1c1.2-2.1,1.2-4.7,0-6.9l-14.3-24.8c-2-3.4-6.3-4.6-9.8-2.6
						c-1.1,0.6-2,1.5-2.6,2.6l-48.5,84.1c-1.2,2.1-3.5,3.4-5.9,3.4h-59.2c-3.9,0-7.1-3.2-7.1-7.1c0-1.3,0.3-2.5,1-3.6l88.3-153
						l1.3-2.3c2-3.4,6.3-4.6,9.8-2.6c1.1,0.6,2,1.5,2.6,2.6l18.1,31.4c2,3.4,6.3,4.6,9.8,2.6c1.1-0.6,2-1.5,2.6-2.6l48-83.1
						c2-3.4,6.3-4.6,9.8-2.6c1.1,0.6,2,1.5,2.6,2.6l1.1,1.9l22.5,39l6,10.4c1.2,2.1,1.2,4.7,0,6.9l-56.4,97.7
						c-1.2,2.1-1.2,4.7,0,6.9l14.2,24.6c2,3.4,6.3,4.6,9.8,2.6c1.1-0.6,2-1.5,2.6-2.6l54.2-93.8l24.3-42c2-3.4,6.3-4.6,9.8-2.6
						c1.1,0.6,2,1.5,2.6,2.6L1721.4,421z"/>
					<path id="Path_9382" class="st4" d="M1775.3,535.8h-58.1c-3.9,0-7.1-3.2-7.1-7.1c0-1.3,0.3-2.5,1-3.6l4.8-8.3l24.3-42
						c2-3.4,6.3-4.6,9.8-2.6c1.1,0.6,2,1.5,2.6,2.6l29,50.3c2,3.4,0.8,7.8-2.6,9.8C1777.8,535.4,1776.6,535.8,1775.3,535.8z"/>
				</g>
			</g>
		</g>
	</g>
	
		<linearGradient id="Path_9258_1_" gradientUnits="userSpaceOnUse" x1="1819.475" y1="-181.3872" x2="1818.826" y2="-180.6982" gradientTransform="matrix(279.9059 0 0 179.0009 -507763.5625 35232.1563)">
		<stop  offset="0" style="stop-color:#FFFFFF"/>
		<stop  offset="1" style="stop-color:#FFFFFF;stop-opacity:0"/>
	</linearGradient>
	<path id="Path_9258" class="st5" d="M1270.5,2895.7l52.4-64c19.9-22.2,54-24,76.1-4.1l0.1,0.1l7.4,6.6c7.8,7.1,19.8,6.8,27.3-0.6
		l59.3-59.6l-17-16.4c-3-2.9-3.1-7.8-0.2-10.8c1.2-1.3,2.9-2.1,4.7-2.3l61.4-6.5c4.2-0.4,8,2.6,8.4,6.8c0,0.4,0.1,0.9,0,1.3
		l-4.3,61.6c-0.3,4.2-3.9,7.4-8.2,7.1c-1.8-0.1-3.5-0.9-4.8-2.1l-17.1-16.5l-64.4,64.7c-17,16.7-44,17.3-61.7,1.4l-13.1-11.8
		c-8.5-7.6-21.5-7-29.2,1.5l0,0l-53.4,65.1L1270.5,2895.7z"/>
	<g id="images" transform="translate(-231 2151)">
		<g id="Group_4" transform="translate(1320 -1928)">
			<g transform="matrix(1, 0, 0, 1, -1131.1, 2307)">
				
					<linearGradient id="Ellipse_1-2_2_" gradientUnits="userSpaceOnUse" x1="1894.733" y1="-181.1869" x2="1895.3051" y2="-180.2129" gradientTransform="matrix(108 0 0 108 -202666.25 19744.8867)">
					<stop  offset="0" style="stop-color:#A8CDFF"/>
					<stop  offset="1" style="stop-color:#6286FC"/>
				</linearGradient>
				<circle id="Ellipse_1-2_1_" class="st6" cx="1994.4" cy="227" r="54"/>
			</g>
			<circle id="Ellipse_2" class="st7" cx="863.3" cy="2534" r="40"/>
			<g id="tron" transform="translate(402.606 2427.22) rotate(22)">
				<path id="Path_12" class="st8" d="M483.9-77.5c-1.5-1.4-3.7-3.6-5.4-5.2l-0.1-0.1c-0.2-0.1-0.4-0.2-0.6-0.3l0,0
					c-4.2-0.8-23.8-4.4-24.2-4.4c-0.1,0-0.2,0.1-0.3,0.1l-0.1,0.1c-0.1,0.1-0.2,0.3-0.3,0.4v0.1v0.4c2.2,6.1,10.9,26.2,12.6,31
					c0.1,0.3,0.3,0.9,0.7,1h0.1c0.2,0,1-1.1,1-1.1s15-18.1,16.5-20.1c0.2-0.2,0.4-0.5,0.5-0.8C484.4-76.8,484.3-77.2,483.9-77.5z
					 M471.2-75.4l6.4-5.3l3.7,3.4L471.2-75.4z M468.7-75.8l-11-9l17.8,3.3L468.7-75.8z M469.7-73.4l11.2-1.8l-12.8,15.5L469.7-73.4z
					 M456.3-83.9l11.6,9.8l-1.7,14.3L456.3-83.9z"/>
			</g>
			<circle id="Ellipse_3" class="st9" cx="940.3" cy="2496" r="5"/>
			<circle id="Ellipse_4" class="st9" cx="780.3" cy="2596" r="5"/>
			<circle id="Ellipse_5" class="st9" cx="798.3" cy="2458" r="3"/>
		</g>
	</g>
	
		<linearGradient id="Ellipse_33_1_" gradientUnits="userSpaceOnUse" x1="1820.4404" y1="-181.7768" x2="1820.4404" y2="-180.7768" gradientTransform="matrix(378 0 0 378 -687163.125 71380.6172)">
		<stop  offset="0" style="stop-color:#FFFFFF;stop-opacity:0.584"/>
		<stop  offset="1" style="stop-color:#FFFFFF;stop-opacity:0"/>
	</linearGradient>
	<circle id="Ellipse_33" class="st10" cx="963.3" cy="2858" r="189"/>
	
		<linearGradient id="Ellipse_34_1_" gradientUnits="userSpaceOnUse" x1="1818.9386" y1="-181.6902" x2="1818.9386" y2="-180.6902" gradientTransform="matrix(272 0 0 272 -493787.9375 52141.7031)">
		<stop  offset="0" style="stop-color:#FFFFFF;stop-opacity:0.584"/>
		<stop  offset="1" style="stop-color:#FFFFFF;stop-opacity:0"/>
	</linearGradient>
	<circle id="Ellipse_34" class="st11" cx="963.3" cy="2858" r="136"/>
	<g transform="matrix(1, 0, 0, 1, -42.1, 2530)">
		
			<linearGradient id="Path_9235-2_2_" gradientUnits="userSpaceOnUse" x1="1901.6278" y1="-181.1824" x2="1901.3069" y2="-180.5405" gradientTransform="matrix(207.6265 0 0 159.4117 -393713 29051.7227)">
			<stop  offset="0" style="stop-color:#A8CDFF"/>
			<stop  offset="1" style="stop-color:#968FFF"/>
		</linearGradient>
		<path id="Path_9235-2_1_" class="st12" d="M1010.4,228.3l8.6,7.8c9.2,8.3,23.3,8,32.1-0.7l69.6-70l-20-19.3
			c-3.6-3.4-3.7-9.1-0.2-12.7c1.5-1.5,3.4-2.5,5.5-2.7l72.1-7.6c4.9-0.5,9.3,3.1,9.9,8c0.1,0.5,0.1,1,0,1.6l-5.1,72.3
			c-0.3,4.9-4.6,8.7-9.6,8.3c-2.1-0.1-4.1-1-5.6-2.5l-20.1-19.4l-75.6,75.9c-19.9,19.6-51.7,20.3-72.5,1.6L984.1,255
			C974.2,245.9,984.4,204.8,1010.4,228.3z"/>
	</g>
	<g transform="matrix(1, 0, 0, 1, -42.1, 2530)">
		
			<linearGradient id="Path_25-2_2_" gradientUnits="userSpaceOnUse" x1="1894.2506" y1="-180.4579" x2="1894.5675" y2="-180.985" gradientTransform="matrix(103.0598 0 0 109.7894 -194192.9844 20061.0742)">
			<stop  offset="0" style="stop-color:#F4738A"/>
			<stop  offset="1" style="stop-color:#FAA79D"/>
		</linearGradient>
		<path id="Path_25-2_1_" class="st13" d="M990.2,246.1l51.2-51.5l-14.7-14.2c-2.6-2.5-2.7-6.7-0.2-9.3c1.1-1.1,2.5-1.8,4-2l53-5.6
			c3.6-0.4,6.9,2.3,7.3,5.9c0,0.4,0,0.8,0,1.1l-3.7,53.2c-0.3,3.6-3.4,6.4-7,6.1c-1.5-0.1-3-0.8-4.1-1.8l-14.8-14.3l-55.6,55.8
			C990.9,284,983.7,252.5,990.2,246.1z"/>
	</g>
	<g transform="matrix(1, 0, 0, 1, -42.1, 2530)">
		<circle id="Ellipse_31-2_1_" class="st4" cx="1005.4" cy="326" r="118"/>
	</g>
	<g transform="matrix(1, 0, 0, 1, -42.1, 2530)">
		<circle id="Ellipse_32-2_1_" class="st14" cx="1005.4" cy="326" r="97"/>
	</g>
</g>
</svg>
