<svg xmlns="http://www.w3.org/2000/svg" width="23.037" height="16.198" viewBox="0 0 23.037 16.198"><g transform="translate(0 -76)"><g transform="translate(0 76)"><path d="M22.137,90.4H1.8V76.9a.9.9,0,1,0-1.8,0V91.3a.9.9,0,0,0,.9.9H22.137a.9.9,0,0,0,0-1.8Z" transform="translate(0 -76)" fill="#96bbfe"/></g><g transform="translate(3.869 80.049)"><path d="M100.944,166.187l0,0-.022-.017a.9.9,0,0,0-1.1.042L97.447,167.3a.9.9,0,0,0-.143,1.552l.392.277-1.8,2.518-3.767-5.274a.9.9,0,0,0-1.464,0l-4.5,6.3a.9.9,0,1,0,1.464,1.046l3.767-5.274,3.767,5.274a.9.9,0,0,0,1.464,0l2.536-3.551.477.337a.9.9,0,0,0,1.416-.652l.263-2.852A.9.9,0,0,0,100.944,166.187Z" transform="translate(-85.999 -166)" fill="#96bbfe"/></g></g></svg>