<svg xmlns="http://www.w3.org/2000/svg" width="345.996" height="263.444" viewBox="0 0 345.996 263.444"><g transform="matrix(0.966, -0.259, 0.259, 0.966, -897.283, -136.53)"><path d="M1043.783,524.6A128.635,128.635,0,0,1,1015.17,605.6a7.269,7.269,0,0,0,.458,9.721l.354.353a7.32,7.32,0,0,0,10.868-.57,144.023,144.023,0,0,0,2.62-177.674,7.328,7.328,0,0,0-11.016-.76l-.291.29a7.291,7.291,0,0,0-.7,9.546A128.58,128.58,0,0,1,1043.783,524.6Z" transform="translate(60.913 6.852)" fill="#a6c5ff" opacity="0.092"/><path d="M834.7,525.178a128.632,128.632,0,0,1,28.392-80.734,7.257,7.257,0,0,0-.469-9.692l-.359-.359a7.32,7.32,0,0,0-10.878.585,144.034,144.034,0,0,0,2.664,183.63,7.328,7.328,0,0,0,10.762.442l.3-.3a7.351,7.351,0,0,0,.339-9.98A128.687,128.687,0,0,1,834.7,525.178Z" transform="translate(-9.211 10.045)" fill="#a6c5ff" opacity="0.121"/></g></svg>