<svg xmlns="http://www.w3.org/2000/svg" width="230" height="230" viewBox="0 0 230 230"><g transform="translate(-819.635 -391.296)"><path d="M1037.635,506.3a102.5,102.5,0,0,1-22.8,64.549,5.792,5.792,0,0,0,.365,7.746l.282.281a5.833,5.833,0,0,0,8.66-.454,114.76,114.76,0,0,0,2.088-141.573,5.839,5.839,0,0,0-8.778-.606l-.232.231a5.809,5.809,0,0,0-.561,7.606A102.454,102.454,0,0,1,1037.635,506.3Z" fill="#f79094"/><path d="M831.635,506.3a102.5,102.5,0,0,1,22.623-64.33,5.783,5.783,0,0,0-.374-7.723l-.286-.286a5.832,5.832,0,0,0-8.668.466,114.768,114.768,0,0,0,2.123,146.319,5.839,5.839,0,0,0,8.575.352l.238-.238a5.858,5.858,0,0,0,.27-7.952A102.54,102.54,0,0,1,831.635,506.3Z" fill="#f79094"/><path d="M862.341,425.729a5.789,5.789,0,0,0,7.746.365,102.783,102.783,0,0,1,131.156,1.7,5.859,5.859,0,0,0,7.952-.27l.238-.238a5.839,5.839,0,0,0-.352-8.575,114.773,114.773,0,0,0-146.567-1.926,5.833,5.833,0,0,0-.455,8.659Z" fill="#a6c5ff"/><path d="M1006.688,587.047a5.783,5.783,0,0,0-7.723-.374,102.773,102.773,0,0,1-126.55,1.648,5.807,5.807,0,0,0-7.6.561l-.232.232a5.839,5.839,0,0,0,.606,8.778A114.753,114.753,0,0,0,1006.508,596a5.833,5.833,0,0,0,.466-8.669Z" fill="#a6c5ff"/></g></svg>