<svg xmlns="http://www.w3.org/2000/svg" xmlns:xlink="http://www.w3.org/1999/xlink" width="19.779" height="26.372" viewBox="0 0 19.779 26.372"><defs><linearGradient id="a" x1="0.15" y1="1.427" x2="1.294" y2="0.22" gradientUnits="objectBoundingBox"><stop offset="0" stop-color="#f4738a"/><stop offset="1" stop-color="#faa79d"/></linearGradient></defs><g transform="translate(-14 -8)"><path d="M16.2,29.976h3.3a1.1,1.1,0,0,0,0-2.2H16.2V10.2H31.581v18.68a1.1,1.1,0,1,0,2.2,0V10.2a2.2,2.2,0,0,0-2.2-2.2H16.2A2.2,2.2,0,0,0,14,10.2V27.779A2.2,2.2,0,0,0,16.2,29.976Z" fill="url(#a)"/><path d="M29.227,44.652a1.1,1.1,0,0,0,1.2-.238l1.421-1.42,1.421,1.42a1.1,1.1,0,0,0,1.876-.777v-6.82a3.846,3.846,0,1,0-6.593,0v6.82A1.1,1.1,0,0,0,29.227,44.652Zm1.52-3.665V38.53a3.806,3.806,0,0,0,2.2,0v2.458A1.651,1.651,0,0,0,30.747,40.987Zm1.1-7.79A1.648,1.648,0,1,1,30.2,34.846,1.65,1.65,0,0,1,31.846,33.2Z" transform="translate(-6.308 -10.364)" fill="url(#a)"/><path d="M32.791,21.1a1.1,1.1,0,0,0-1.1-1.1H25.1a1.1,1.1,0,0,0,0,2.2h6.593A1.1,1.1,0,0,0,32.791,21.1Z" transform="translate(-4.506 -5.407)" fill="url(#a)"/></g></svg>