<svg xmlns="http://www.w3.org/2000/svg" width="102.384" height="12.852" viewBox="0 0 102.384 12.852"><path d="M1.152-12.69H6.318a8.068,8.068,0,0,1,3.627.756,5.341,5.341,0,0,1,2.331,2.187,6.777,6.777,0,0,1,.81,3.393,6.877,6.877,0,0,1-.8,3.411A5.287,5.287,0,0,1,9.963-.756,8.112,8.112,0,0,1,6.318,0H1.152ZM6.084-2.664a3.8,3.8,0,0,0,2.79-.918,3.767,3.767,0,0,0,.918-2.772,3.735,3.735,0,0,0-.918-2.763,3.818,3.818,0,0,0-2.79-.909H4.464v7.362ZM15.066-12.69h9.018v2.556h-5.8v2.412h5.436v2.538H18.288v2.628h5.8V0H15.066Zm10.746,0H34.65V-10.1H29.07v2.34h5.22v2.592H29.07V0H25.812Zm10.4,0h3.312V0H36.216Zm19.3,10.062H49.9L48.762,0h-3.33l5.922-12.69h2.628L59.922,0H56.646ZM54.45-5.112,52.7-9.18,50.958-5.112ZM66.132.162a5.737,5.737,0,0,1-4.185-1.4,5.5,5.5,0,0,1-1.431-4.1V-12.69h3.24v7.47a3.216,3.216,0,0,0,.612,2.106,2.161,2.161,0,0,0,1.764.738A2.161,2.161,0,0,0,67.9-3.114a3.216,3.216,0,0,0,.612-2.106v-7.47h3.258v7.344a5.464,5.464,0,0,1-1.449,4.095A5.753,5.753,0,0,1,66.132.162ZM74-12.69h5.166a8.068,8.068,0,0,1,3.627.756,5.341,5.341,0,0,1,2.331,2.187,6.777,6.777,0,0,1,.81,3.393,6.877,6.877,0,0,1-.8,3.411A5.287,5.287,0,0,1,82.809-.756,8.112,8.112,0,0,1,79.164,0H74ZM78.93-2.664a3.8,3.8,0,0,0,2.79-.918,3.767,3.767,0,0,0,.918-2.772,3.735,3.735,0,0,0-.918-2.763,3.818,3.818,0,0,0-2.79-.909H77.31v7.362ZM87.912-12.69h3.312V0H87.912Zm8.478,2.682h-3.8V-12.69h10.944v2.682h-3.8V0H96.39Z" transform="translate(-1.152 12.69)" fill="#4e4e4e"/></svg>