<svg xmlns="http://www.w3.org/2000/svg" width="32" height="38" viewBox="0 0 32 38"><g><g><g><g><path fill="#f37335" d="M31.584 15.21v13.963a1.628 1.628 0 1 1-3.256 0V17.995a.319.319 0 0 0-.478-.276l-2.435 1.405-2.372 1.37a1.765 1.765 0 0 1-1.766 0l-2.373-1.37-9.588-5.536-2.372-1.369a1.765 1.765 0 0 1-.883-1.529V6.93c0-.63.336-1.213.882-1.528l2.373-1.37 3.4-1.963 2.372-1.37a1.765 1.765 0 0 1 1.765 0l2.372 1.37 2.967 1.713 2.373 1.37c.546.315.882.898.882 1.529v4.114a1.627 1.627 0 0 1-3.255 0V8.56c0-.63-.336-1.213-.882-1.529l-4.457-2.573a1.765 1.765 0 0 0-1.766 0l-4.889 2.823a1.765 1.765 0 0 0 0 3.058l11.079 6.396c.546.316 1.219.316 1.765 0l5.286-3.051.307-.177c1.31-.757 2.949.189 2.949 1.702z"/></g></g><g><path fill="#fcbb31" d="M25.523 27.352v3.759c0 .705-.376 1.356-.987 1.708l-2.268 1.31-3.4 1.963-2.368 1.367a1.772 1.772 0 0 1-1.773 0l-2.368-1.367-2.967-1.713-2.315-1.336a1.883 1.883 0 0 1-.941-1.631v-4.046a1.628 1.628 0 0 1 3.256 0v2.167c0 .672.358 1.294.94 1.63l4.395 2.537a1.772 1.772 0 0 0 1.773 0l4.782-2.76c.61-.353.986-1.004.986-1.709 0-.557-.297-1.071-.78-1.35L3.9 17.727a.429.429 0 0 0-.643.371v11.737a1.628 1.628 0 1 1-3.256 0V15.475c0-1.67 1.809-2.715 3.256-1.879l19.012 10.977 2.476 1.43c.482.277.779.792.779 1.349z"/></g></g></g></svg>