<svg xmlns="http://www.w3.org/2000/svg" width="48" height="16" viewBox="0 0 48 16"><g><g><path fill="#fff" d="M17.561.282l-16.5 6.364c-1.127.452-1.12 1.08-.207 1.36L5.09 9.328l9.802-6.185c.464-.282.887-.13.54.18L7.49 10.488h-.002l.002.001-.293 4.367c.428 0 .617-.196.857-.428l2.058-2.001 4.28 3.161c.79.435 1.356.212 1.553-.73l2.81-13.242c.287-1.153-.44-1.675-1.194-1.335z"/></g><g><path fill="#fff" d="M41.581 11.209l.987.987 4.682-4.682-4.682-4.681-.987.987 2.997 2.996h-6.692v1.396h6.692z"/></g></g></svg>