<svg xmlns="http://www.w3.org/2000/svg" width="14.729" height="15.467" viewBox="0 0 14.729 15.467"><path d="M14.033,4.51c-.7-.648-1.672-1.637-2.463-2.339l-.047-.033a.893.893,0,0,0-.26-.145h0C9.358,1.637.486-.021.313,0A.327.327,0,0,0,.178.052L.133.087a.522.522,0,0,0-.122.2L0,.314V.505C1,3.286,4.942,12.4,5.719,14.534c.047.145.136.421.3.435h.037c.089,0,.468-.5.468-.5S13.3,6.254,13.984,5.38a2.213,2.213,0,0,0,.234-.346A.564.564,0,0,0,14.033,4.51Zm-5.77.957,2.891-2.4,1.7,1.562ZM7.141,5.309,2.163,1.23l8.053,1.485ZM7.59,6.378l5.094-.821L6.86,12.574Zm-6.1-4.741L6.724,6.081l-.758,6.5Z" transform="translate(0.25 0.248)" fill="#6b6be2" stroke="#6b6be2" stroke-width="0.5"/></svg>