<svg xmlns="http://www.w3.org/2000/svg" width="12.205" height="12.205" viewBox="0 0 12.205 12.205"><path d="M4.214,0h-2.8A1.413,1.413,0,0,0,0,1.411v2.8A1.413,1.413,0,0,0,1.411,5.626h2.8A1.413,1.413,0,0,0,5.626,4.214v-2.8A1.413,1.413,0,0,0,4.214,0Zm.458,4.214a.458.458,0,0,1-.458.458h-2.8a.458.458,0,0,1-.458-.458v-2.8A.458.458,0,0,1,1.411.954h2.8a.458.458,0,0,1,.458.458Z" fill="#fff"/><g transform="translate(6.579)"><path d="M280.2,0H277.43A1.432,1.432,0,0,0,276,1.43V4.2a1.432,1.432,0,0,0,1.43,1.43H280.2a1.432,1.432,0,0,0,1.43-1.43V1.43A1.432,1.432,0,0,0,280.2,0Zm.477,4.2a.477.477,0,0,1-.477.477H277.43a.477.477,0,0,1-.477-.477V1.43a.477.477,0,0,1,.477-.477H280.2a.477.477,0,0,1,.477.477Z" transform="translate(-276)" fill="#fff"/></g><g transform="translate(0 6.579)"><path d="M4.214,276h-2.8A1.413,1.413,0,0,0,0,277.411v2.8a1.413,1.413,0,0,0,1.411,1.411h2.8a1.413,1.413,0,0,0,1.411-1.411v-2.8A1.413,1.413,0,0,0,4.214,276Zm.458,4.214a.458.458,0,0,1-.458.458h-2.8a.458.458,0,0,1-.458-.458v-2.8a.458.458,0,0,1,.458-.458h2.8a.458.458,0,0,1,.458.458Z" transform="translate(0 -276)" fill="#fff"/></g><g transform="translate(6.579 6.579)"><path d="M280.2,276H277.43a1.432,1.432,0,0,0-1.43,1.43V280.2a1.432,1.432,0,0,0,1.43,1.43H280.2a1.432,1.432,0,0,0,1.43-1.43V277.43A1.432,1.432,0,0,0,280.2,276Zm.477,4.2a.477.477,0,0,1-.477.477H277.43a.477.477,0,0,1-.477-.477V277.43a.477.477,0,0,1,.477-.477H280.2a.477.477,0,0,1,.477.477Z" transform="translate(-276 -276)" fill="#fff"/></g></svg>