<svg xmlns="http://www.w3.org/2000/svg" xmlns:xlink="http://www.w3.org/1999/xlink" width="32.158" height="25.123" viewBox="0 0 32.158 25.123"><defs><linearGradient id="a" x1="0.5" x2="0.5" y2="1" gradientUnits="objectBoundingBox"><stop offset="0" stop-color="#f4738a"/><stop offset="1" stop-color="#faa79d"/></linearGradient></defs><g transform="translate(0 -56)"><g transform="translate(0 56)"><path d="M30.9,63.537h-2.01V59.768A3.773,3.773,0,0,0,25.123,56H3.768A3.773,3.773,0,0,0,0,59.768V77.355a3.773,3.773,0,0,0,3.768,3.768H25.123a3.773,3.773,0,0,0,3.768-3.768V73.586H30.9a1.256,1.256,0,0,0,1.256-1.256V64.793A1.256,1.256,0,0,0,30.9,63.537ZM26.379,77.355a1.258,1.258,0,0,1-1.256,1.256H3.768a1.258,1.258,0,0,1-1.256-1.256V59.768a1.258,1.258,0,0,1,1.256-1.256H25.123a1.258,1.258,0,0,1,1.256,1.256v3.768H21.355A1.256,1.256,0,0,0,20.1,64.793V72.33a1.256,1.256,0,0,0,1.256,1.256h5.025Zm3.266-6.281H22.611V66.049h7.034Z" transform="translate(0 -56)" fill="url(#a)"/></g><g transform="translate(24.872 67.305)"><circle cx="1" cy="1" r="1" transform="translate(0.207 0.256)" fill="#f68590"/></g></g></svg>