<svg xmlns="http://www.w3.org/2000/svg" width="214" height="89" viewBox="0 0 214 89"><defs><mask id="h5zqb" width="2" height="2" x="-1" y="-1"><path fill="#fff" d="M19 14h176v51H19z"/><path d="M44 65c-13.807 0-25-11.193-25-25v-1c0-13.807 11.193-25 25-25h126c13.807 0 25 11.193 25 25v1c0 13.807-11.193 25-25 25z"/></mask><filter id="h5zqa" width="236" height="116" x="-11" y="-16" filterUnits="userSpaceOnUse"><feOffset dy="5" in="SourceGraphic" result="FeOffset1198Out"/><feGaussianBlur in="FeOffset1198Out" result="FeGaussianBlur1199Out" stdDeviation="8 8"/></filter><linearGradient id="h5zqc" x1="80.46" x2="100.4" y1="75.78" y2="11.07" gradientUnits="userSpaceOnUse"><stop offset="0" stop-color="#f4738a"/><stop offset="1" stop-color="#faa79d"/></linearGradient><mask id="h5zqe" width="2" height="2" x="-1" y="-1"><path fill="#fff" d="M11 7h192v65H11z"/><path d="M43 72c-17.673 0-32-14.327-32-32v-1C11 21.327 25.327 7 43 7h128c17.673 0 32 14.327 32 32v1c0 17.673-14.327 32-32 32z"/></mask><filter id="h5zqd" width="252" height="130" x="-19" y="-23" filterUnits="userSpaceOnUse"><feOffset dy="5" in="SourceGraphic" result="FeOffset1217Out"/><feGaussianBlur in="FeOffset1217Out" result="FeGaussianBlur1218Out" stdDeviation="8 8"/></filter><linearGradient id="h5zqf" x1="78.04" x2="99.8" y1="85.73" y2="3.26" gradientUnits="userSpaceOnUse"><stop offset="0" stop-color="#f4738a"/><stop offset="1" stop-color="#faa79d"/></linearGradient></defs><g><g><g filter="url(#h5zqa)"><path fill="none" d="M44 65c-13.807 0-25-11.193-25-25v-1c0-13.807 11.193-25 25-25h126c13.807 0 25 11.193 25 25v1c0 13.807-11.193 25-25 25z" mask="url(&quot;#h5zqb&quot;)"/><path fill="#f99d99" fill-opacity=".45" d="M44 65c-13.807 0-25-11.193-25-25v-1c0-13.807 11.193-25 25-25h126c13.807 0 25 11.193 25 25v1c0 13.807-11.193 25-25 25z"/></g><path fill="url(#h5zqc)" d="M44 65c-13.807 0-25-11.193-25-25v-1c0-13.807 11.193-25 25-25h126c13.807 0 25 11.193 25 25v1c0 13.807-11.193 25-25 25z"/></g><g opacity=".06"><g filter="url(#h5zqd)"><path fill="none" d="M43 72c-17.673 0-32-14.327-32-32v-1C11 21.327 25.327 7 43 7h128c17.673 0 32 14.327 32 32v1c0 17.673-14.327 32-32 32z" mask="url(&quot;#h5zqe&quot;)"/><path fill="#f99d99" fill-opacity=".45" d="M43 72c-17.673 0-32-14.327-32-32v-1C11 21.327 25.327 7 43 7h128c17.673 0 32 14.327 32 32v1c0 17.673-14.327 32-32 32z"/></g><path fill="url(#h5zqf)" d="M43 72c-17.673 0-32-14.327-32-32v-1C11 21.327 25.327 7 43 7h128c17.673 0 32 14.327 32 32v1c0 17.673-14.327 32-32 32z"/></g><g><path fill="#fff" d="M52 35v12l10-6z"/></g></g></svg>